<svg width="166" height="64" viewBox="0 0 166 64" fill="none" xmlns="http://www.w3.org/2000/svg">
<path d="M16.9227 19.0278C13.1736 19.0278 10.1196 22.08 10.1196 25.8309V43.972H12.3882V25.8309C12.3882 23.3261 14.4196 21.2955 16.9227 21.2955H148.199C150.703 21.2955 152.734 23.3261 152.734 25.8309V43.972H155V25.8309C155 22.08 151.949 19.0278 148.199 19.0278H16.9227Z" fill="#3D7DCA"/>
<path d="M31.0126 39.1944C31.0126 39.3717 30.9009 39.4364 30.7059 39.4364H29.0243C28.8298 39.4364 28.7669 39.3717 28.7669 39.1773V34.6027C28.7669 34.3906 28.6204 34.2789 28.4114 34.2789H23.9948C23.8026 34.2789 23.6882 34.3906 23.6882 34.6027V39.1773C23.6882 39.3717 23.5764 39.4364 23.3986 39.4364H21.6831C21.5225 39.4364 21.4565 39.3717 21.4565 39.1944V27.8282C21.4565 27.6501 21.5225 27.5533 21.6831 27.5533H23.3986C23.5764 27.5533 23.6882 27.6501 23.6882 27.8282V32.2255C23.6882 32.4358 23.8026 32.5326 23.9948 32.5326H28.4114C28.6204 32.5326 28.7669 32.4358 28.7669 32.2255V27.8282C28.7669 27.6501 28.8298 27.5533 29.0243 27.5533H30.7059C30.9009 27.5533 31.0126 27.6501 31.0126 27.8282V39.1949V39.1944ZM35.071 39.5983C33.825 39.5983 33.1804 38.596 33.1804 37.7389V30.6728C33.1804 30.462 33.2609 30.3657 33.4554 30.3657H35.071C35.2343 30.3657 35.346 30.462 35.346 30.6728V37.4961C35.346 37.6905 35.4266 37.7882 35.6527 37.7882H38.6116C38.8061 37.7882 38.935 37.6905 38.935 37.4961V30.6728C38.935 30.462 39.0155 30.3657 39.21 30.3657H40.8287C41.006 30.3657 41.1178 30.462 41.1178 30.6728V40.9733C41.1178 41.2311 41.0377 41.4731 40.9233 41.7151L39.8233 43.5111C39.7287 43.6717 39.5827 43.769 39.4194 43.769H39.21C39.0155 43.769 38.935 43.6559 38.935 43.4781V38.9194C38.935 38.725 38.8233 38.6444 38.6459 38.6928L35.541 39.5653C35.3949 39.5983 35.2171 39.5983 35.071 39.5983ZM45.1445 39.5812C44.1568 39.5812 43.286 38.7734 43.286 37.7218V30.6728C43.286 30.462 43.3666 30.3657 43.561 30.3657H45.1934C45.3373 30.3657 45.4517 30.462 45.4517 30.6728V37.4961C45.4517 37.6905 45.5489 37.7711 45.7755 37.7711H48.7344C48.9262 37.7711 49.0582 37.6905 49.0582 37.4961V30.6728C49.0582 30.462 49.1211 30.3657 49.3156 30.3657H50.9312C51.1081 30.3657 51.2234 30.462 51.2234 30.6728V39.1944C51.2234 39.3717 51.1081 39.4364 50.9312 39.4364H49.3156C49.1211 39.4364 49.0582 39.3717 49.0582 39.1773V38.9194C49.0582 38.7091 48.9262 38.6273 48.7485 38.6928L45.6466 39.5328C45.4833 39.5812 45.3056 39.5812 45.1445 39.5812ZM61.329 32.1124V39.1949C61.329 39.3722 61.2142 39.4364 61.0369 39.4364H59.4212C59.2268 39.4364 59.1608 39.3722 59.1608 39.1777V32.3544C59.1608 32.1445 59.0318 32.0314 58.84 32.0314H55.8807C55.6545 32.0314 55.5573 32.1445 55.5573 32.3544V39.1777C55.5573 39.3722 55.4424 39.4364 55.2964 39.4364H53.664C53.4722 39.4364 53.389 39.3722 53.389 39.1949V30.6732C53.389 30.4624 53.4722 30.3657 53.664 30.3657H55.2964C55.4424 30.3657 55.5573 30.4624 55.5573 30.6732V30.9482C55.5573 31.1259 55.6373 31.2065 55.8807 31.1422L58.9689 30.3014C59.1291 30.2693 59.2752 30.2205 59.4357 30.2205C60.504 30.2205 61.329 31.1101 61.329 32.1124ZM68.9566 37.4961V32.3711C68.9566 32.1445 68.862 32.0314 68.6359 32.0314H65.6426C65.416 32.0314 65.336 32.1445 65.336 32.3711V37.4961C65.336 37.6905 65.416 37.7711 65.6426 37.7711H68.6359C68.862 37.7711 68.9566 37.6905 68.9566 37.4961ZM63.1704 37.7222V33.6484C63.1704 32.7755 63.5426 32.1124 64.3161 31.6913L66.032 30.6895C66.3871 30.4624 66.7422 30.3657 67.1632 30.3657H68.6499C68.862 30.3657 68.9566 30.2856 68.9566 30.0907V26.7441C68.9566 26.5668 69.0393 26.437 69.1999 26.437H70.8499C71.0448 26.437 71.1249 26.5668 71.1249 26.7441V39.194C71.1249 39.3717 71.0448 39.436 70.8499 39.436H69.1999C69.0393 39.436 68.9566 39.3717 68.9566 39.1768V38.919C68.9566 38.7087 68.862 38.6268 68.6499 38.6928L65.5309 39.5323C65.3531 39.5807 65.2071 39.5807 65.0465 39.5807C64.2043 39.6137 63.1704 38.8376 63.1704 37.7218M78.7556 37.4961V32.3711C78.7556 32.1445 78.6407 32.0314 78.4317 32.0314H75.4385C75.2123 32.0314 75.1323 32.1445 75.1323 32.3711V37.4961C75.1323 37.6905 75.2123 37.7711 75.4385 37.7711H78.4317C78.6407 37.7711 78.7556 37.6905 78.7556 37.4961ZM74.8419 39.5812C73.8229 39.5812 72.9667 38.7575 72.9667 37.7222V33.6484C72.9667 32.7755 73.3389 32.1124 74.0979 31.6913L75.8283 30.6895C76.159 30.4727 76.547 30.3599 76.9424 30.3657H80.6462C80.8235 30.3657 80.9212 30.4624 80.9212 30.6728V39.1944C80.9212 39.3722 80.8235 39.4364 80.6462 39.4364H78.9962C78.8185 39.4364 78.7556 39.3722 78.7556 39.1773V38.9194C78.7556 38.7091 78.6407 38.6273 78.4317 38.6933L75.3267 39.5328C75.1494 39.5812 75.0034 39.5812 74.8419 39.5812ZM85.2546 39.1944C85.2546 39.3717 85.1402 39.4364 84.9796 39.4364H83.3613C83.1528 39.4364 83.0863 39.3717 83.0863 39.1944V30.6728C83.0863 30.462 83.1528 30.3657 83.3613 30.3657H84.9796C85.1402 30.3657 85.2546 30.462 85.2546 30.6728V39.1944ZM85.2546 28.0698C85.2546 28.2638 85.1402 28.3285 84.9796 28.3285H83.3613C83.1528 28.3285 83.0863 28.2638 83.0863 28.0698V26.7441C83.0863 26.5668 83.1528 26.437 83.3613 26.437H84.9796C85.1402 26.437 85.2546 26.5668 85.2546 26.7441V28.0698ZM89.7891 37.1076V30.9799C89.7891 30.0753 90.1759 29.3796 90.9691 28.9106L92.8598 27.8599C93.2008 27.6496 93.6047 27.5528 93.9769 27.5528H97.9874C98.1788 27.5528 98.276 27.6496 98.276 27.8436V29.0237C98.276 29.201 98.1788 29.2828 97.9874 29.2828H92.3758C92.1809 29.2828 92.1008 29.3964 92.1008 29.6058V37.3984C92.1008 37.6092 92.1809 37.7064 92.3758 37.7064H98.1471C98.3248 37.7064 98.4392 37.7882 98.4392 37.9484C98.4392 38.1257 98.3552 38.2718 98.1788 38.3694L96.7893 39.146C96.4171 39.3546 96.0308 39.4364 95.6414 39.4364H92.1488C91.0008 39.4364 89.7891 38.6114 89.7891 37.1076ZM105.572 37.4961V32.3711C105.572 32.1445 105.457 32.0314 105.248 32.0314H102.257C102.031 32.0314 101.949 32.1445 101.949 32.3711V37.4961C101.949 37.6905 102.031 37.7711 102.257 37.7711H105.248C105.457 37.7711 105.572 37.6905 105.572 37.4961ZM101.659 39.5812C100.639 39.5812 99.7834 38.7575 99.7834 37.7222V33.6484C99.7834 32.7755 100.155 32.1124 100.914 31.6913L102.644 30.6895C102.975 30.4731 103.362 30.3603 103.757 30.3657H107.462C107.64 30.3657 107.737 30.4624 107.737 30.6728V39.1944C107.737 39.3722 107.64 39.4364 107.462 39.4364H105.813C105.635 39.4364 105.572 39.3722 105.572 39.1773V38.9194C105.572 38.7091 105.457 38.6273 105.248 38.6933L102.143 39.5328C101.966 39.5812 101.82 39.5812 101.659 39.5812ZM115.691 37.4961V32.3711C115.691 32.1445 115.579 32.0314 115.368 32.0314H112.395C112.169 32.0314 112.085 32.1445 112.085 32.3711V37.4961C112.085 37.6905 112.169 37.7711 112.395 37.7711H115.368C115.579 37.7711 115.691 37.6905 115.691 37.4961ZM117.857 32.1124V36.203C117.857 37.0605 117.487 37.7068 116.743 38.1591L114.981 39.1614C114.64 39.3722 114.253 39.4364 113.881 39.4364H112.395C112.169 39.4364 112.085 39.5653 112.085 39.7761V43.0417C112.085 43.252 111.974 43.3651 111.81 43.3651H110.178C109.986 43.3651 109.903 43.252 109.903 43.0417V30.6732C109.903 30.4629 109.986 30.3661 110.178 30.3661H111.81C111.974 30.3661 112.085 30.4629 112.085 30.6732V30.9482C112.085 31.1259 112.169 31.2069 112.395 31.1427L115.482 30.3014C115.66 30.2693 115.837 30.2209 115.983 30.2209C116.903 30.2209 117.857 30.9649 117.857 32.1128M121.867 39.1944C121.867 39.3717 121.753 39.4364 121.592 39.4364H119.974C119.765 39.4364 119.699 39.3717 119.699 39.1944V30.6728C119.699 30.462 119.765 30.3657 119.974 30.3657H121.592C121.753 30.3657 121.867 30.462 121.867 30.6728V39.1944ZM121.867 28.0698C121.867 28.2638 121.753 28.3285 121.592 28.3285H119.974C119.765 28.3285 119.699 28.2638 119.699 28.0698V26.7441C119.699 26.5668 119.765 26.437 119.974 26.437H121.592C121.753 26.437 121.867 26.5668 121.867 26.7441V28.0698ZM126.281 39.4523C124.923 39.4523 124.033 38.3364 124.033 37.2211V29.0567C124.033 28.8618 124.099 28.7496 124.293 28.6682L125.958 28.2471C126.104 28.215 126.233 28.2792 126.233 28.4425V30.1395C126.233 30.301 126.295 30.3657 126.44 30.3657H129.383C129.595 30.3657 129.691 30.462 129.691 30.6728V31.7886C129.691 31.9505 129.595 32.0314 129.383 32.0314H126.521C126.312 32.0314 126.233 32.1445 126.233 32.3707V37.4961C126.233 37.6905 126.312 37.7711 126.521 37.7711H129.724C129.933 37.7711 130.031 37.8679 130.031 38.0461C130.031 38.2062 129.95 38.321 129.773 38.4178L128.495 39.1773C128.141 39.388 127.767 39.4523 127.364 39.4523H126.281ZM137.162 37.4961V32.3711C137.162 32.1445 137.051 32.0314 136.84 32.0314H133.849C133.623 32.0314 133.542 32.1445 133.542 32.3711V37.4961C133.542 37.6905 133.623 37.7711 133.849 37.7711H136.84C137.051 37.7711 137.162 37.6905 137.162 37.4961ZM133.25 39.5812C132.233 39.5812 131.374 38.7575 131.374 37.7222V33.6484C131.374 32.7755 131.746 32.1124 132.508 31.6913L134.236 30.6895C134.568 30.4731 134.957 30.3603 135.353 30.3657H139.057C139.233 30.3657 139.332 30.4624 139.332 30.6728V39.1944C139.332 39.3722 139.233 39.4364 139.057 39.4364H137.407C137.228 39.4364 137.162 39.3722 137.162 39.1773V38.9194C137.162 38.7091 137.051 38.6273 136.84 38.6933L133.737 39.5328C133.557 39.5812 133.413 39.5812 133.25 39.5812ZM143.662 39.1944C143.662 39.3717 143.551 39.4364 143.403 39.4364H141.789C141.577 39.4364 141.497 39.3717 141.497 39.1944V26.7446C141.497 26.5672 141.577 26.4375 141.789 26.4375H143.403C143.551 26.4375 143.662 26.5672 143.662 26.7446V39.1944Z" fill="#3D7DCA"/>
</svg>
