<svg width="166" height="64" viewBox="0 0 166 64" fill="none" xmlns="http://www.w3.org/2000/svg">
<path d="M99.2494 13.4379C99.6325 13.1349 100.079 12.9829 100.531 13.0015C100.984 13.0201 101.422 13.2085 101.788 13.5423C102.46 14.3299 102.294 15.4876 101.788 17.3381C101.788 17.3381 100.647 21.1909 99.476 25.1765L99.1738 26.2014C98.1085 29.8358 97.0885 33.2995 96.9677 33.793C95.8343 37.8261 98.4787 37.7027 99.9898 33.6506C100.866 31.3732 101.984 27.6153 101.984 27.6153C102.385 26.1349 102.506 25.2429 102.256 24.9298C102.181 24.8254 102.256 24.6925 102.392 24.6261C104.16 23.4399 105.906 24.4648 104.916 27.6722V27.8051L102.891 34.1916C102.377 35.7668 102.438 37.2662 103.201 37.2662C103.848 37.157 104.45 36.7875 104.916 36.2128C106.124 34.7476 107.08 32.9876 107.727 31.041C107.9 30.5571 108.55 28.7446 109.064 26.8941C109.244 26.2664 109.344 25.6064 109.358 24.9392C109.347 24.8559 109.356 24.7703 109.383 24.6928C109.409 24.6154 109.453 24.5493 109.51 24.5027C109.898 24.2436 110.331 24.1069 110.771 24.1042C110.985 24.0986 111.196 24.1567 111.388 24.2739C111.579 24.391 111.746 24.5638 111.874 24.7779C112.065 25.1762 112.173 25.6286 112.187 26.0931C112.202 26.5575 112.123 27.0191 111.958 27.435L109.102 36.9245C110.613 35.7573 112.026 35.6719 112.879 36.1084C113.138 36.2237 113.37 36.4164 113.555 36.6697C113.741 36.923 113.874 37.2294 113.944 37.5622C114.014 37.895 114.018 38.2443 113.957 38.5796C113.895 38.915 113.769 39.2264 113.59 39.4867C113.514 39.5911 113.318 39.5626 113.318 39.4013C113.242 38.2151 111.414 36.08 108.701 38.3764L108.588 38.7465L107.787 41.4131C105.807 48.0558 103.7 52.9239 100.67 51.8516C98.6374 51.1304 98.8716 47.4769 101.063 44.4592C102.574 42.4295 104.214 40.5571 105.966 38.8604C106.011 38.6801 106.064 38.5283 106.102 38.3764C106.314 37.6363 106.472 37.01 106.707 36.2223L106.82 35.7289C106.691 35.9187 106.45 36.2793 106.283 36.507C105.826 37.281 105.21 37.8841 104.5 38.2519C103.791 38.6196 103.015 38.7381 102.256 38.5947L102.083 38.5473C101.507 38.4141 100.989 38.0274 100.62 37.4568C100.252 36.8862 100.058 36.1691 100.073 35.4347C98.4561 37.9589 96.7863 38.6896 95.6908 38.6516C94.1797 38.6516 93.1371 37.2187 93.8548 34.5806C94.6557 31.6389 98.0103 20.0331 98.9925 16.5505C99.3552 15.0511 99.4912 14.1022 99.1285 13.7036C99.0378 13.6087 99.1663 13.4569 99.2796 13.3715L99.2494 13.4379ZM105.566 40.7488C104.735 41.5839 101.395 45.0476 100.466 47.8091C100.088 48.9478 100.186 49.8493 100.836 49.9347C102.347 50.115 103.858 46.3097 105.543 40.9007L105.566 40.7488ZM64.1168 17.5659C64.0488 17.879 63.1195 21.2288 62.0768 24.9203L61.9182 25.4801L61.7595 26.04L61.5933 26.6094C65.1368 25.5466 71.4682 20.3748 72.1709 17.0439C72.2615 16.8826 72.39 16.8352 72.594 17.0439C72.7905 17.2692 72.9308 17.5612 72.9979 17.8846C73.0649 18.208 73.0559 18.5489 72.9717 18.8659C72.3975 21.7128 68.1212 25.8313 64.3737 27.9285C65.3181 30.8752 66.3797 33.7605 67.5545 36.5734C68.8087 39.5342 70.1385 40.9196 72.1935 41.0715C73.2548 41.1456 74.3016 40.7343 75.1401 39.9138L75.2459 39.7809C75.397 39.5911 75.6312 39.8568 75.5254 40.0846C75.1037 40.8714 74.5438 41.5261 73.8889 41.9983C73.2339 42.4705 72.5014 42.7475 71.7478 42.8081C66.9576 43.2161 65.1217 39.1356 61.6991 29.0577C61.4195 29.1716 61.0871 29.3234 60.7547 29.4847C60.6942 29.6555 59.1907 34.8368 59.1454 35.0077C58.3898 37.7312 58.3898 39.221 58.8734 39.648C58.9791 39.7335 58.9262 39.9707 58.7374 40.0466C56.8258 40.7963 55.073 39.3823 56.0476 35.8332C56.9694 32.6732 60.392 20.4697 61.3138 17.2337C61.6386 16.0096 61.4649 15.2219 60.9435 15.0416C58.4578 14.1781 52.693 20.7923 53.5393 26.8941C53.6828 27.9569 54.2948 28.5548 54.5819 28.4788C54.5948 28.4746 54.6083 28.4738 54.6215 28.4763C54.6346 28.4789 54.6473 28.4848 54.6586 28.4937C54.6699 28.5025 54.6796 28.5142 54.6872 28.528C54.6948 28.5418 54.7001 28.5573 54.7028 28.5737C54.7063 28.5925 54.7063 28.612 54.7028 28.6307C54.6137 28.9839 54.4191 29.2801 54.1599 29.457C53.9007 29.634 53.597 29.6779 53.3126 29.5796C52.9589 29.4497 52.6458 29.1858 52.4159 28.8241C52.1861 28.4623 52.0507 28.0203 52.0282 27.5584C51.5748 21.2383 56.6747 13.6562 61.3893 13.0393C63.1875 12.8021 64.8723 13.9503 64.1168 17.5659ZM82.2498 26.9795L82.2044 27.1693L80.0662 34.9128C79.832 35.7194 79.9907 36.5639 80.444 36.7158C81.7738 37.1808 83.4662 34.685 84.3199 32.2272C84.7204 31.0315 85.0755 29.8264 85.4381 28.6117C85.8763 27.0459 86.2692 25.5845 86.0274 24.9013C85.967 24.74 86.0274 24.6546 86.1937 24.5691C86.579 24.3224 87.8785 23.7815 88.5661 24.6356C89.0949 25.2714 89.0269 26.3152 88.5661 27.8905L88.4981 28.1277L88.6643 27.862C90.7042 24.7305 92.2833 23.791 93.6206 24.4458L93.7339 24.5122C95.5321 25.5276 94.5953 29.4563 92.1322 29.7125C91.9811 29.7125 91.8678 29.5891 92.0113 29.3234C92.3135 28.754 92.2833 27.5109 91.4144 27.4255C90.5456 27.3401 89.2763 28.5642 88.3923 30.1205C87.2902 32.2524 86.4449 34.5772 85.8839 37.0194C85.6723 37.7976 85.7706 37.9684 85.8008 38.0348C85.8084 38.0657 85.8084 38.0988 85.8008 38.1297C85.432 38.5255 84.9553 38.7262 84.471 38.6896C83.2395 38.6896 82.7408 37.7976 82.96 36.3742C81.5622 38.0538 80.1569 38.8604 78.9178 38.7181C78.6681 38.6918 78.425 38.6039 78.2025 38.4593C77.9799 38.3148 77.7822 38.1165 77.6208 37.8758C77.4593 37.6352 77.3373 37.3568 77.2617 37.0568C77.1861 36.7568 77.1583 36.4409 77.1801 36.1274C77.1872 36.009 77.2024 35.8915 77.2254 35.7763C76.145 37.4939 74.5508 38.8794 72.9188 38.6801C71.2869 38.4808 70.2744 37.1048 70.8033 34.1441C71.2563 31.8909 71.8138 29.6729 72.4731 27.5014C72.8584 26.1159 72.9415 25.2144 72.6922 24.8918C72.6166 24.7874 72.7375 24.6546 72.8433 24.5881C74.1201 23.7436 76.1601 24.2845 75.5859 26.5714C75.0117 28.8584 73.8784 32.7302 73.6593 33.5937C73.1002 35.7573 73.4402 36.934 74.2259 36.991C75.0117 37.0479 76.0619 36.042 76.8099 34.6091C78.1396 32.2177 78.7592 29.219 79.3636 27.1313C79.5147 26.5999 79.7565 25.3568 79.4996 24.9013C79.4316 24.7874 79.5525 24.6546 79.7111 24.5502C80.8671 23.7436 82.9448 23.9428 82.28 27.0175L82.2498 26.9795Z" fill="#5F0080"/>
</svg>
