<svg width="166" height="64" viewBox="0 0 166 64" fill="none" xmlns="http://www.w3.org/2000/svg">
<path d="M22.4206 43.3144C28.7306 43.3164 33.8476 38.2524 33.8496 32.0036C33.8516 25.7548 28.738 20.6876 22.428 20.6855C16.1179 20.6835 11.001 25.7476 10.999 31.9964V31.9981C10.9985 38.246 16.1115 43.3119 22.4206 43.3144Z" fill="#A50034"/>
<path d="M124.635 34.9482C124.691 35.6516 124.55 36.3572 124.228 36.9863H116.697V37.3691C116.697 37.5641 116.778 37.6299 116.989 37.6309H125.035V39.4189L115.349 39.4316C114.518 39.4316 114.125 39.0658 114.125 38.3779V35.3857H122.068V34.7139H114.094V33.0146H124.635V34.9482ZM146.977 36.8643C146.977 37.0931 147.042 37.1416 147.257 37.1416H155V39.3438H145.64C145.513 39.3642 145.385 39.3655 145.258 39.3467C144.585 39.246 144.121 38.6235 144.223 37.957V33.9326H146.977V36.8643ZM57.2979 24.1689C59.4351 24.169 61.7193 24.7297 63.0215 26.5781L60.8838 28.5225C60.4787 27.9905 59.9442 27.5689 59.3301 27.2969C58.7158 27.0248 58.0417 26.9111 57.3711 26.9668C54.2766 26.9668 53.2949 28.7424 53.2949 31.7568C53.2949 34.9185 54.3303 36.4756 57.4248 36.4756C58.2663 36.4772 59.1029 36.3449 59.9023 36.085V33.5078H57.1025L57.1064 30.7607H63.0713V37.9102C61.3107 38.9114 59.3036 39.4088 57.2744 39.3457C52.2402 39.3456 49.9561 36.6707 49.9561 31.7334C49.9561 26.7714 52.4846 24.1689 57.2979 24.1689ZM81.9541 35.6631C81.9728 36.8647 81.8688 38.0651 81.6445 39.2461H79.4277V24.1846H81.9541V35.6631ZM96.3418 35.9854C96.3369 37.0792 96.2327 38.1706 96.0312 39.2461H93.6836V29.6406H89.2988V27.5098H93.6836L93.6797 24.1846H96.3418V35.9854ZM110.954 35.9854C110.946 37.0783 110.848 38.1688 110.661 39.2461H108.297V24.1846H110.954V35.9854ZM140.608 33.0127V35.1025H135.257V36.1025C135.256 36.6296 135.227 37.1787 135.171 37.75C135.124 38.2521 135.051 38.7517 134.951 39.2461H132.511V35.1006H126.705V33.0127H140.608ZM42.416 36.2588H49.5381V39.125H38.9775V24.3867H42.416V36.2588ZM78.4854 35.502C78.4847 36.5933 78.4028 37.6833 78.2402 38.7627H76.0381V30.1748H75.0498C75.0478 30.2087 75.046 30.2426 75.043 30.2764C74.8593 32.3685 72.9973 33.9172 70.8848 33.7354C67.9005 33.7353 66.6963 31.7604 66.6963 29.125C66.6963 26.6059 67.9006 24.5469 70.8848 24.5469C72.9977 24.3849 74.8484 25.9369 75.0352 28.0273H76.0381L76.04 24.2334H78.4854V35.502ZM106.799 26.6201H103.812V27.6494C103.673 29.9901 105.168 32.122 107.432 32.8096L106.192 34.9502C104.732 34.3427 103.491 33.3106 102.635 31.9902C101.717 33.4999 100.285 34.636 98.5977 35.1943L97.5215 33.2939C100.342 32.0671 101.122 30.3595 101.122 27.6641V26.6201H98.2061V24.5059H106.799V26.6201ZM154.71 32.2686C154.687 33.2433 154.583 34.2145 154.396 35.1719H151.975V30.1709H148.795V28.2734H151.975V27.3857H148.795V25.5059H151.975V24.2246H154.71V32.2686ZM86.3584 32.2158C86.3584 32.4902 86.4388 32.5547 86.7002 32.5547H88.4355C89.6224 32.5857 90.8065 32.422 91.9395 32.0703L92.2822 33.9434C91.0249 34.4486 89.6781 34.7007 88.3213 34.6855H85.0693C84.2245 34.6854 83.7657 34.2814 83.7656 33.3457V24.4277H86.3584V32.2158ZM147.001 24.4531V27.1787C147.001 29.5278 148.294 30.8346 150.634 31.3408L149.506 33.5918C147.98 33.1793 146.67 32.2035 145.848 30.8652C145.405 31.5701 144.819 32.1763 144.127 32.6455C143.435 33.1147 142.653 33.4372 141.829 33.5918L140.922 31.6992C143.607 30.8141 144.283 29.5607 144.283 27.1787V24.4531H147.001ZM120.637 30.4551H126.431V32.376H112.17V30.4551H118.011V29.1279H120.634L120.637 30.4551ZM138.922 24.1846V26.8984C138.922 27.2913 138.893 27.6836 138.836 28.0723C138.801 28.4325 138.692 28.7821 138.515 29.0986H131.093V29.8037C131.093 29.9273 131.106 29.964 131.135 29.9922C131.193 30.028 131.262 30.0419 131.33 30.0332H139.267V32.1875H129.723C129.403 32.2129 129.087 32.1128 128.841 31.9092C128.628 31.6124 128.526 31.2517 128.552 30.8887V27.1865H136.381V26.2588H128.552V24.1846H138.922ZM70.8984 26.7861C69.8479 26.7862 69.3721 27.6094 69.3721 29.1406C69.3721 30.7553 69.8479 31.5614 70.8984 31.5615L70.9014 31.5605C71.9531 31.5605 72.3934 30.7545 72.3916 29.1406C72.3916 27.6093 71.9492 26.7861 70.8984 26.7861ZM120.554 24.6738C120.554 26.5068 122.363 27.2806 125.379 27.5068L124.678 29.6104C122.376 29.4813 120.309 28.8987 119.348 27.5547C118.255 28.8825 116.004 29.5306 113.886 29.6797L113.267 27.8613C116.054 27.5224 117.863 26.5024 117.863 24.7061V24.123H120.554V24.6738Z" fill="black"/>
</svg>
