<svg width="140" height="140" viewBox="0 0 140 140" fill="none" xmlns="http://www.w3.org/2000/svg">
<path d="M126 106H14V34H126V106ZM15.0791 104.911H124.921V35.0889H15.0791V104.911ZM73.1104 98.8145H21.1191V41.1855H73.1104V98.8145ZM94.9346 95.2578C95.1503 95.2578 95.2947 95.2946 95.4385 95.3672C95.5821 95.4398 95.726 95.5484 95.7979 95.6934C95.9056 95.8384 95.9777 95.9836 96.0137 96.2012C96.0496 96.4189 96.085 96.7095 96.085 97.0361C96.085 97.4352 96.0133 97.7616 95.9414 98.0156C95.8695 98.2696 95.7258 98.4515 95.582 98.5967C95.4382 98.7418 95.2224 98.8144 94.9707 98.8145C94.6112 98.8145 94.3595 98.7052 94.1797 98.4512C93.964 98.1608 93.8563 97.6892 93.8203 97.0361C93.8203 96.6371 93.892 96.3106 93.9639 96.0566C94.0358 95.8027 94.1435 95.6207 94.3232 95.4756C94.467 95.3304 94.6829 95.2578 94.9346 95.2578ZM97.5596 95.2578C97.7752 95.2578 97.9187 95.2946 98.0625 95.3672C98.2063 95.4397 98.3499 95.5483 98.4219 95.6934C98.5297 95.8385 98.6017 95.9836 98.6377 96.2012C98.6737 96.4189 98.71 96.7095 98.71 97.0361C98.71 97.4351 98.6383 97.7617 98.5664 98.0156C98.4945 98.2696 98.3508 98.4515 98.207 98.5967C98.0633 98.7418 97.8472 98.8144 97.5957 98.8145C97.2362 98.8145 96.9845 98.7052 96.8047 98.4512C96.589 98.1608 96.4803 97.6894 96.4443 97.0361C96.4443 96.6371 96.517 96.3106 96.5889 96.0566C96.6608 95.8026 96.7685 95.6207 96.9482 95.4756C97.0921 95.3305 97.3079 95.2578 97.5596 95.2578ZM100.185 95.2578C100.4 95.2579 100.544 95.2947 100.688 95.3672C100.831 95.4398 100.975 95.5483 101.047 95.6934C101.155 95.8385 101.227 95.9836 101.263 96.2012C101.299 96.4189 101.335 96.7095 101.335 97.0361C101.335 97.4352 101.262 97.7616 101.19 98.0156C101.119 98.2697 100.975 98.4515 100.831 98.5967C100.687 98.7417 100.471 98.8145 100.22 98.8145C99.8604 98.8144 99.6084 98.7051 99.4287 98.4512C99.2132 98.1608 99.1053 97.6891 99.0693 97.0361C99.0693 96.6372 99.141 96.3106 99.2129 96.0566C99.2848 95.8026 99.3935 95.6207 99.5732 95.4756C99.7171 95.3306 99.933 95.2578 100.185 95.2578ZM103.276 98.7422H102.845V96.0195C102.737 96.1284 102.593 96.2017 102.449 96.3105C102.305 96.4194 102.161 96.492 102.018 96.5283V96.1289C102.233 96.02 102.449 95.8747 102.629 95.7295C102.809 95.548 102.953 95.403 103.024 95.2578H103.276V98.7422ZM94.9707 95.585C94.7909 95.585 94.6108 95.6574 94.5029 95.8389C94.3593 96.0567 94.2879 96.456 94.252 97C94.252 97.5441 94.3231 97.9435 94.4668 98.125C94.6106 98.3065 94.7909 98.415 94.9707 98.415C95.1863 98.415 95.3299 98.3063 95.4736 98.125C95.6174 97.9436 95.6894 97.5805 95.6895 97C95.6895 96.4556 95.6175 96.0565 95.4736 95.875C95.3298 95.6936 95.1504 95.585 94.9707 95.585ZM97.5957 95.585C97.4159 95.585 97.2358 95.6574 97.1279 95.8389C96.9842 96.0567 96.9119 96.4558 96.876 97C96.876 97.5443 96.948 97.9436 97.0918 98.125C97.2356 98.3064 97.38 98.415 97.5957 98.415C97.8112 98.4149 97.9549 98.3063 98.0986 98.125C98.2424 97.9436 98.3144 97.5805 98.3145 97C98.3145 96.4557 98.2424 96.0565 98.0986 95.875C97.9549 95.6937 97.7754 95.5851 97.5957 95.585ZM100.22 95.585C100.04 95.5851 99.8607 95.6575 99.7529 95.8389C99.6092 96.0566 99.5369 96.4557 99.501 97C99.501 97.5443 99.573 97.9436 99.7168 98.125C99.8605 98.3063 100.004 98.4149 100.22 98.415C100.435 98.415 100.58 98.3064 100.724 98.125C100.867 97.9436 100.939 97.5805 100.939 97C100.939 96.4559 100.867 96.0566 100.724 95.875C100.58 95.6935 100.435 95.585 100.22 95.585ZM21.9824 97.9434H72.2471V42.0566H21.9824V97.9434ZM118.845 93.0078H79.1865V41.1855H118.845V93.0078ZM38.6289 86.1494L36.9756 92.3555H36.4355L38.0898 86.1494H38.6289ZM79.9053 92.2822H118.126V41.9473H79.9053V92.2822ZM29.8564 86.5127C30.3955 86.5128 30.9345 86.7302 31.2939 87.0928L30.8633 87.6377C30.5757 87.3837 30.2518 87.2384 29.8564 87.2383C29.4252 87.2383 29.137 87.4559 29.1367 87.7822C29.1367 88.1451 29.4609 88.2904 29.8564 88.4355L30.4678 88.6904C31.0068 88.9444 31.4023 89.2708 31.4023 89.96C31.4023 90.7221 30.7907 91.3389 29.748 91.3389C29.1369 91.3388 28.5261 91.0848 28.0947 90.6494L28.5977 90.0693C28.9572 90.3959 29.3889 90.6133 29.8203 90.6133C30.3234 90.6133 30.6111 90.3958 30.6113 90.0332C30.6113 89.6341 30.3239 89.5242 29.8926 89.3428L29.2451 89.0527C28.7778 88.8713 28.3107 88.5086 28.3105 87.8193C28.3105 87.0935 28.9576 86.5127 29.8564 86.5127ZM34.0273 86.4766C35.2495 86.4768 36.076 87.3835 36.0762 88.8711C36.0762 90.3588 35.2137 91.3025 34.0273 91.3027C32.8049 91.3027 31.9775 90.3953 31.9775 88.8711C31.9777 87.3471 32.805 86.4766 34.0273 86.4766ZM46.9707 86.4766C47.5458 86.4766 48.0131 86.7302 48.3008 87.0566L47.834 87.5654C47.5823 87.3114 47.3303 87.166 46.9707 87.166C46.2158 87.1661 45.6769 87.8189 45.6768 88.8711C45.6768 89.9234 46.1796 90.577 46.9346 90.5771C47.33 90.5771 47.6536 90.3956 47.9053 90.1055L48.373 90.6133C48.0135 91.0488 47.5099 91.3027 46.9346 91.3027C45.7842 91.3026 44.8498 90.4683 44.8496 88.9082C44.8496 87.384 45.7842 86.4766 46.9707 86.4766ZM59.124 86.585C60.0227 86.5852 60.6338 87.3843 60.6338 88.9082C60.6337 90.4682 60.0225 91.3026 59.0879 91.3027C58.1532 91.3027 57.5415 90.4684 57.6133 88.9082C57.6133 87.384 58.2251 86.585 59.124 86.585ZM62.7188 86.585C63.6536 86.585 64.2295 87.384 64.2295 88.9082C64.2294 90.4684 63.6535 91.3027 62.7188 91.3027C61.7842 91.3025 61.1732 90.4682 61.209 88.9082C61.209 87.3842 61.7841 86.5852 62.7188 86.585ZM27.2676 86.5488V91.2305H26.4404V86.5488H27.2676ZM40.1748 86.5488V91.2305H39.3486V86.5488H40.1748ZM44.0947 86.585V87.2744H42.1523V88.4727H43.8066V89.1621H42.1523V90.541H44.166V91.2305H41.3262V86.585H44.0947ZM51.6445 86.6211C52.4713 86.6211 53.0467 87.1656 53.0469 88C53.0469 88.7984 52.3276 89.6336 51.4287 90.5771C51.6804 90.5771 51.9688 90.541 52.1846 90.541H53.2988V91.2305H50.2432V90.7949C51.5014 89.5613 52.2918 88.7627 52.292 88.0732C52.292 87.6015 52.0045 87.2744 51.5371 87.2744C51.2136 87.2744 50.9255 87.492 50.6738 87.7822L50.207 87.3105C50.6383 86.8754 51.0337 86.6212 51.6445 86.6211ZM57.002 86.6943V87.2021C55.9234 88.5085 55.7438 89.4523 55.6719 91.2305H54.8447C54.9166 89.5974 55.2047 88.6176 56.1035 87.3838H53.9824V86.6943H57.002ZM66.8535 86.6572V90.541H67.7529V91.2305H65.0566V90.5049H66.0273V87.5283H65.2002V87.0205C65.6675 86.9479 65.9556 86.8387 66.2432 86.6572H66.8535ZM59.0879 87.2383C58.6564 87.2383 58.333 87.6379 58.333 88.9443C58.3331 90.2505 58.6565 90.6855 59.0879 90.6855C59.5192 90.6854 59.8427 90.2503 59.8428 88.9443C59.8428 87.6381 59.5192 87.2384 59.0879 87.2383ZM62.7188 87.2383C62.2875 87.2385 61.9639 87.6382 61.9639 88.9443C61.9639 90.2502 62.2875 90.6853 62.7188 90.6855C63.1502 90.6855 63.4746 90.2505 63.4746 88.9443C63.4746 87.6379 63.1502 87.2383 62.7188 87.2383ZM34.0273 87.2021C33.3083 87.2021 32.8409 87.8189 32.8408 88.8711C32.8408 89.8872 33.3082 90.5771 34.0273 90.5771C34.7462 90.5769 35.2139 89.9233 35.2139 88.8711C35.2138 87.8553 34.7461 87.2024 34.0273 87.2021ZM90.5117 87.2383C90.6555 87.2383 91.0159 87.2741 91.2676 87.3467V87.7461C91.1238 87.6735 90.7276 87.6377 90.5479 87.6377C90.1165 87.6377 89.8652 87.7104 89.8652 88.0732C89.8654 88.2907 90.0094 88.3999 90.2969 88.5449L90.8721 88.835C91.2314 89.0164 91.4111 89.2346 91.4111 89.6699C91.411 90.2865 90.9795 90.4316 90.2607 90.4316C90.1169 90.4316 89.6849 90.3958 89.3613 90.3232V89.9238C89.6849 90.0327 90.1169 90.0684 90.2607 90.0684C90.6919 90.0683 90.9793 89.9961 90.9795 89.6699C90.9795 89.4161 90.8717 89.307 90.6562 89.1982L90.0449 88.8711C89.6135 88.6534 89.3975 88.4716 89.3975 88.0361C89.3976 87.3833 89.793 87.2383 90.5117 87.2383ZM95.834 87.2383C95.978 87.2383 96.3374 87.2742 96.5889 87.3467V87.7461C96.445 87.6735 96.0489 87.6377 95.8691 87.6377C95.438 87.6377 95.1865 87.7105 95.1865 88.0732C95.1867 88.2907 95.3307 88.3999 95.6182 88.5449L96.1934 88.835C96.5528 89.0164 96.7324 89.2345 96.7324 89.6699C96.7322 90.2865 96.301 90.4316 95.582 90.4316C95.4383 90.4316 95.0071 90.3957 94.6836 90.3232V89.9238C95.0071 90.0326 95.4383 90.0684 95.582 90.0684C96.0133 90.0684 96.3006 89.9962 96.3008 89.6699C96.3008 89.416 96.1931 89.3071 95.9775 89.1982L95.3662 88.8711C94.9348 88.6534 94.7188 88.4716 94.7188 88.0361C94.7189 87.3832 95.115 87.2383 95.834 87.2383ZM107.591 87.2383C107.735 87.2383 108.094 87.2742 108.346 87.3467V87.7461C108.166 87.6736 107.771 87.6377 107.627 87.6377C107.195 87.6377 106.943 87.7103 106.943 88.0732C106.944 88.2907 107.088 88.3999 107.375 88.5449L107.95 88.835C108.31 89.0164 108.49 89.2344 108.49 89.6699C108.49 90.2865 108.058 90.4316 107.339 90.4316C107.195 90.4316 106.764 90.3957 106.44 90.3232V89.9238C106.764 90.0326 107.195 90.0683 107.339 90.0684C107.77 90.0684 108.058 89.9962 108.059 89.6699C108.059 89.4159 107.95 89.3071 107.734 89.1982L107.124 88.8711C106.693 88.6534 106.477 88.4716 106.477 88.0361C106.477 87.3832 106.872 87.2383 107.591 87.2383ZM93.0654 89.0166H93.1016L93.9639 87.3105H94.4316L93.2812 89.4512V90.3955H92.8496V89.415L91.6992 87.3105H92.2021L93.0654 89.0166ZM99.4287 87.6738H98.458V90.3955H98.0625V87.6738H97.1279V87.3105H99.4287V87.6738ZM101.838 87.6738H100.364V88.6895H101.658V89.0527H100.364V90.0322H101.874V90.3955H99.9326V87.3105H101.838V87.6738ZM104.14 89.5244L105.074 87.3105H105.649L105.865 90.3955H105.434L105.254 87.8184L104.319 89.9961H103.96L103.061 87.8545L102.845 90.3955H102.414L102.665 87.3105H103.24L104.14 89.5244ZM98.2432 83.1006C98.6024 83.1006 98.9256 83.1736 99.1055 83.21V83.5732C98.9256 83.537 98.5665 83.5 98.2432 83.5C97.3443 83.5 97.3086 83.9721 97.3086 84.335V85.1328C97.3086 85.4594 97.3082 85.9314 98.1709 85.9678C98.4224 85.9678 98.7459 85.8958 98.9258 85.8232V85.1328H98.2793V84.7705H99.3213V86.041C99.0337 86.1861 98.6381 86.2949 98.1709 86.2949C96.9127 86.2586 96.877 85.5321 96.877 85.0967V84.2988C96.877 83.8633 96.9128 83.1006 98.2432 83.1006ZM85.5508 85.3506L86.4492 83.1367H87.0244L87.2402 86.2578H86.8447L86.665 83.6816H86.6289L85.6943 85.8594H85.335L84.4355 83.6816L84.2559 86.2578H83.8242L84.0762 83.1367H84.6514L85.5508 85.3506ZM90.4404 86.2578H89.9736L89.6494 85.2783H88.4268L88.1035 86.2578H87.6719L88.7871 83.1367H89.3262L90.4404 86.2578ZM92.7773 85.6045V83.1367H93.209V86.2578H92.7051L91.375 83.79V86.2578H90.9434V83.1367H91.4834L92.7773 85.6045ZM96.4805 86.2578H96.0137L95.6895 85.2783H94.4668L94.1436 86.2578H93.7119L94.8271 83.1367H95.3662L96.4805 86.2578ZM101.874 83.5H100.436V84.5166H101.73V84.915H100.436V85.8955H101.946V86.2578H100.005V83.1367H101.874V83.5ZM104.212 85.3506L105.11 83.1367H105.686L105.938 86.2578H105.506L105.326 83.6816L104.392 85.8594H104.031L103.133 83.6816H103.097L102.917 86.2578H102.485L102.737 83.1367H103.312L104.212 85.3506ZM108.526 83.5H107.088V84.5166H108.382V84.915H107.088V85.8955H108.562V86.2578H106.656V83.1367H108.526V83.5ZM111.043 85.6045H111.078V83.1367H111.51V86.2578H111.007L109.677 83.79H109.641V86.2578H109.245V83.1367H109.748L111.043 85.6045ZM114.314 83.5H113.38V86.2578H112.948V83.5H112.014V83.1367H114.314V83.5ZM88.5713 84.915H89.5059L89.0381 83.5361H89.0029L88.5713 84.915ZM94.6113 84.915H95.5459L95.0781 83.5361H95.043L94.6113 84.915ZM110.287 76.3145C111.186 76.2782 112.05 76.4596 112.229 76.5322C112.337 76.5684 112.373 76.5684 112.373 76.5684V77.5488C112.373 77.5488 112.193 77.5127 112.157 77.5127C111.834 77.4401 111.114 77.2949 110.323 77.2949C109.676 77.2949 109.137 77.3673 109.137 77.8389C109.137 78.2744 109.497 78.3109 110.432 78.4561C111.798 78.6375 112.66 78.8915 112.66 80.1611C112.66 81.5402 111.294 81.8672 109.964 81.8672C109.065 81.8672 108.023 81.6859 107.807 81.6133C107.717 81.583 107.702 81.578 107.699 81.5771V80.5244C107.708 80.5266 107.844 80.5605 107.879 80.5605C108.598 80.7419 109.317 80.8515 110.071 80.8516C110.467 80.8516 111.223 80.8148 111.223 80.2705C111.223 79.8713 111.043 79.7623 109.964 79.6172C108.67 79.4358 107.699 79.1455 107.699 77.9482C107.699 76.5693 108.957 76.3145 110.287 76.3145ZM86.6289 79.4727C86.629 80.5247 87.0968 80.8516 87.8877 80.8516C88.6786 80.8516 89.1464 80.5247 89.1465 79.4727V76.3154H90.4404V79.3633C90.4404 81.1052 89.6493 81.8311 87.8516 81.8311C86.0539 81.831 85.2627 81.1415 85.2627 79.3633V76.3154H86.6289V79.4727ZM106.152 81.7588H104.643L104.211 80.5977C104.175 80.5251 104.139 80.4892 104.067 80.5254H101.729C101.658 80.5254 101.622 80.5252 101.586 80.5977L101.154 81.7588H99.7529L101.981 76.3516H103.923L106.152 81.7588ZM94.252 76.3506V78.5283C94.252 78.6006 94.2874 78.6006 94.3232 78.6006H94.6475C94.7192 78.6005 94.7553 78.5646 94.8271 78.5283L96.5527 76.3145H98.1709L96.1934 78.7822C96.1574 78.8185 96.1572 78.8553 96.1572 78.8916V78.9639C96.1572 79.0001 96.1576 79.0361 96.1934 79.0723L98.4941 81.7217H96.6611L94.8633 79.4717C94.8273 79.4354 94.7907 79.3994 94.7188 79.3994H94.3594C94.2878 79.3995 94.2881 79.4355 94.2881 79.4717V81.6855H92.9219V76.2783L94.252 76.3506ZM30.9707 76.8594C31.4381 77.2586 31.6894 77.8028 31.6895 78.4561C31.6895 79.7624 30.7552 80.779 29.1016 80.8154C27.4117 80.8154 26.4404 79.7625 26.4404 78.4561C26.4404 77.8029 26.7284 77.2944 27.0879 76.9678L27.6631 77.4404C27.4115 77.7307 27.2314 78.0208 27.2314 78.4199C27.2315 79.2545 27.9149 79.835 29.0654 79.835C30.2517 79.8349 30.9345 79.2908 30.9346 78.4199C30.9346 77.9844 30.7191 77.6214 30.3955 77.3311L30.9707 76.8594ZM67.7529 80.6699H37.0479V46.5566H67.7529V80.6699ZM102.809 77.3311C102.773 77.3311 102.737 77.3317 102.701 77.4043L101.945 79.4365C101.945 79.4727 101.946 79.5086 101.981 79.5088H103.743C103.779 79.5088 103.815 79.4728 103.779 79.4365L102.988 77.4043C102.952 77.3318 102.952 77.3311 102.881 77.3311H102.809ZM31.6182 75.9883H26.5479V72.9033H27.3037V75.0811H28.5977V73.2305H29.3525V75.0811H30.8633V72.8311H31.6182V75.9883ZM41.9736 75.9521H56.499V73.3027H44.9932V49.9316H41.9736V75.9521ZM50.9258 52.5449H54.4492C58.2963 52.5449 60.454 54.3952 60.4541 57.6611C60.4541 60.9273 58.1888 62.8145 54.3057 62.8145H50.8545L61.4609 75.9521H65.2002L56.4629 65.21C60.8494 64.8108 63.4746 61.7983 63.4746 57.6611C63.4745 52.7984 60.2023 49.8955 54.7373 49.8955H50.9258V52.5449ZM98.9619 54.7578C104.391 54.7579 108.813 59.2223 108.813 64.7021C108.813 70.1819 104.391 74.6454 98.9619 74.6455C93.5328 74.6455 89.1105 70.1819 89.1104 64.7021C89.1104 59.2223 93.5327 54.7578 98.9619 54.7578ZM82.9619 73.6299H80.0137V73.085H82.9619V73.6299ZM117.91 73.6299H114.818V73.085H117.91V73.6299ZM98.9619 55.7744C94.1081 55.7744 90.1532 59.8025 90.0811 64.6289C90.0811 69.5644 94.0719 73.5566 98.9258 73.5566C103.816 73.5566 107.77 69.5651 107.771 64.666C107.771 59.7668 103.816 55.7745 98.9619 55.7744ZM81.5596 71.8867H80.0137V71.3428H81.5596V71.8867ZM117.91 71.8867H116.364V71.3428H117.91V71.8867ZM31.6182 68.9482L29.6406 70.0732V70.8711H31.6182V71.7783H26.5479V70.0371C26.5479 68.9484 26.908 68.1494 28.0586 68.1494C28.8135 68.1495 29.2814 68.5491 29.4971 69.166L31.6182 67.9316V68.9482ZM104.606 62.2705C103.24 63.2503 101.91 64.4114 100.724 65.7178C99.2135 67.3508 97.955 69.1658 96.9482 71.0166C95.8696 69.5287 94.5033 68.1852 92.9932 67.1328V64.375C94.2516 64.9556 95.4741 65.7179 96.5527 66.5889C98.746 63.9034 101.478 61.5439 104.606 59.9834V62.2705ZM28.0586 69.0566C27.4833 69.0566 27.2676 69.456 27.2676 70.1455V70.8711H28.9209V70.1455C28.9209 69.4561 28.6337 69.0567 28.0586 69.0566ZM81.5596 70.1816H80.0137V69.6367H81.5596V70.1816ZM117.91 70.1816H116.364V69.6367H117.91V70.1816ZM81.5596 68.4395H80.0137V67.8945H81.5596V68.4395ZM117.91 68.4395H116.364V67.8945H117.91V68.4395ZM27.3037 65.3193H31.6182V66.2266H27.3037V67.7139H26.5479V63.8311H27.3037V65.3193ZM81.5596 66.6982H80.0137V66.1543H81.5596V66.6982ZM117.91 66.6982H116.364V66.1543H117.91V66.6982ZM83.1055 64.9922H80.0137V64.4111H83.1055V64.9922ZM117.91 64.9922H114.818V64.4111H117.91V64.9922ZM81.5596 63.251H80.0137V62.7061H81.5596V63.251ZM117.91 63.251H116.364V62.7061H117.91V63.251ZM31.6182 62.96H26.5127V62.0527H31.6182V62.96ZM81.5596 61.5078H80.0137V60.9629H81.5596V61.5078ZM117.91 61.5078H116.364V60.9629H117.91V61.5078ZM27.3037 59.875H28.7412V58.0244H29.4971V59.875H31.6182V60.7822H26.5479V57.6982H27.3037V59.875ZM81.5596 59.8027H80.0137V59.2578H81.5596V59.8027ZM117.91 59.8027H116.364V59.2578H117.91V59.8027ZM81.5596 58.0605H80.0137V57.5156H81.5596V58.0605ZM117.91 58.0605H116.364V57.5156H117.91V58.0605ZM31.6182 56.7539H26.5127V55.8467H31.6182V56.7539ZM83.1055 56.3193H80.0137V55.7744H83.1055V56.3193ZM117.91 56.3193H114.962V55.7744H117.91V56.3193ZM31.6182 54.5771H26.5479V51.4922H27.3037V53.6699H28.5977V51.8184H29.3525V53.6699H30.8633V51.4199H31.6182V54.5771ZM99.4287 43.2178C99.2491 43.4354 99.1415 43.6894 99.1055 43.9795C99.393 43.9432 99.6447 43.8347 99.8604 43.6533V44.6699C99.6806 44.4885 99.3931 44.3791 99.1055 44.3428C99.1414 44.6329 99.2491 44.8868 99.4287 45.1045L99.6445 45.3594C99.7882 45.5407 99.8603 45.7218 99.8604 45.9756C99.8604 46.3747 99.6087 46.7015 99.2852 46.8467C99.5009 46.9556 99.6447 47.1737 99.6807 47.4277C100.256 47.3551 100.796 47.1738 101.335 46.9561H101.37C101.909 46.7383 102.485 46.7744 103.024 46.9922C103.564 47.2099 103.959 47.6452 104.175 48.1895C104.391 48.7338 104.354 49.315 104.139 49.8594L104.031 50.1133C103.995 50.2946 103.959 50.4399 104.031 50.585C104.103 50.7297 104.21 50.8744 104.211 50.9111L104.463 51.0205L103.527 53.415L103.097 54.54C101.766 53.9594 100.328 53.6699 98.8535 53.6699C97.3796 53.6699 95.9415 53.9595 94.6113 54.54L94.1797 53.415L93.2451 51.0205L93.4961 50.9111C93.6399 50.8386 93.7484 50.7301 93.8203 50.585C93.8921 50.4399 93.892 50.2584 93.8203 50.1133L93.7119 49.8594C93.4602 49.315 93.4601 48.7338 93.6758 48.1895C93.8915 47.6453 94.2871 47.21 94.8262 46.9922C95.3655 46.7382 95.9411 46.7383 96.4805 46.9561H96.5166C97.0559 47.21 97.5957 47.3552 98.1709 47.4277C98.2069 47.1737 98.3507 46.9556 98.5664 46.8467C98.2428 46.7015 97.9902 46.3748 97.9902 45.9756C97.9903 45.7219 98.0625 45.5406 98.2061 45.3594L98.4219 45.1045C98.6016 44.8868 98.7101 44.633 98.7461 44.3428C98.4585 44.3791 98.206 44.4885 97.9902 44.6699V43.6533C98.17 43.8348 98.4585 43.9432 98.7461 43.9795C98.7101 43.6893 98.6016 43.4354 98.4219 43.2178H99.4287ZM96.3369 47.5C95.9414 47.3548 95.5097 47.3547 95.1143 47.5361C94.7188 47.6813 94.3948 48.008 94.251 48.4072C94.1072 48.8064 94.1073 49.2424 94.2871 49.6416L94.3955 49.8955C94.5033 50.1858 94.5033 50.5125 94.3955 50.8027C94.3236 51.0203 94.1796 51.2017 94 51.3105L94.6826 53.0166C94.8264 52.9803 94.9342 52.9797 95.042 52.9072C95.6891 52.5807 95.9048 51.928 95.6533 51.4199C95.6174 51.3111 95.4739 51.238 95.3301 51.3105C95.2222 51.3831 95.1498 51.5287 95.2217 51.6738C95.2576 51.7101 95.3303 51.7459 95.3662 51.7822C95.1505 51.8548 94.8989 51.746 94.791 51.5283C94.6832 51.2743 94.7552 50.9839 95.0068 50.875C95.2224 50.8027 95.4734 50.8754 95.6172 51.0566C95.5095 50.9116 95.4383 50.7301 95.4023 50.5488C95.2945 50.0771 95.4023 49.6779 95.582 49.6416C95.7618 49.5693 96.0133 49.9318 96.1211 50.3672C96.157 50.5847 96.193 50.7661 96.1572 50.9111C96.1933 50.6936 96.3727 50.5129 96.624 50.5127C96.8757 50.5127 97.0918 50.7303 97.0918 50.9844C97.0916 51.202 96.9119 51.4198 96.6963 51.4561C96.7322 51.3835 96.7685 51.3469 96.7686 51.2744C96.7686 51.1293 96.6604 51.0205 96.5166 51.0205C96.3728 51.0205 96.2646 51.1293 96.2646 51.2744C96.2647 51.855 96.7322 52.3632 97.4512 52.3633C98.0983 52.3633 98.6022 51.8914 98.7461 51.2383C98.2068 51.3109 97.7749 51.6008 97.4873 52.0361V50.04C97.739 50.4755 98.2066 50.7663 98.71 50.8389C98.6381 50.5123 98.4577 50.2215 98.2061 50.04V48.0078C97.559 47.9352 96.948 47.754 96.3369 47.5ZM102.809 47.5723C102.413 47.3909 101.981 47.391 101.586 47.5361C101.011 47.7901 100.364 47.9723 99.7168 48.0449V50.0771C99.4651 50.2586 99.2848 50.5484 99.2129 50.875C99.7161 50.8024 100.148 50.5124 100.436 50.0771V52.0723C100.148 51.637 99.68 51.347 99.1768 51.2744C99.2846 51.8913 99.7884 52.3632 100.436 52.3633C101.155 52.3633 101.658 51.8187 101.622 51.2744C101.622 51.1293 101.514 51.0205 101.37 51.0205C101.226 51.0207 101.119 51.1294 101.119 51.2744C101.119 51.347 101.154 51.4198 101.19 51.4561C100.975 51.4197 100.795 51.2381 100.795 50.9844C100.795 50.7303 101.011 50.5127 101.263 50.5127C101.514 50.5127 101.694 50.6935 101.73 50.9111C101.73 50.766 101.73 50.5485 101.766 50.3672C101.873 49.9317 102.09 49.6053 102.306 49.6416C102.521 49.7146 102.593 50.1136 102.485 50.5488C102.413 50.7664 102.341 50.9115 102.27 51.0566C102.413 50.8389 102.665 50.7661 102.881 50.875C103.096 50.9839 103.204 51.2744 103.097 51.5283C102.989 51.7459 102.737 51.8546 102.521 51.7822C102.593 51.7821 102.629 51.7461 102.665 51.6738C102.737 51.5287 102.7 51.3831 102.557 51.3105C102.449 51.2383 102.305 51.3111 102.233 51.4199C101.982 51.928 102.198 52.617 102.845 52.9072C102.953 52.9435 103.096 53.0166 103.204 53.0166L103.923 51.3467C103.743 51.2016 103.599 51.0202 103.527 50.8389C103.384 50.5486 103.42 50.2219 103.527 49.9316L103.636 49.6777C103.816 49.2785 103.816 48.8426 103.672 48.4434C103.492 48.0442 103.204 47.7537 102.809 47.5723ZM104.679 50.0771C104.715 50.0772 104.715 50.1133 104.751 50.1133L104.786 50.1494L104.822 50.1855C104.822 50.2217 104.858 50.222 104.858 50.2578C104.894 50.2578 104.895 50.2946 104.895 50.3672V50.5127C104.859 50.5489 104.858 50.5487 104.858 50.585C104.858 50.6202 104.824 50.6551 104.822 50.6572C104.822 50.6935 104.822 50.7305 104.786 50.7305C104.786 50.7335 104.785 50.7663 104.751 50.7666C104.715 50.8029 104.715 50.8027 104.679 50.8027H104.535C104.427 50.8027 104.355 50.7668 104.283 50.6943C104.283 50.658 104.247 50.6211 104.247 50.6211C104.247 50.585 104.247 50.5851 104.211 50.5488C104.175 50.5128 104.176 50.5124 104.176 50.4766V50.3311C104.212 50.2949 104.211 50.2941 104.211 50.2578C104.211 50.2219 104.247 50.1861 104.247 50.1855L104.283 50.1494C104.283 50.1494 104.283 50.1133 104.319 50.1133C104.355 50.0771 104.355 50.0771 104.391 50.0771H104.679ZM93.4961 50.0039C93.532 50.0039 93.5325 50.041 93.5684 50.041L93.6406 50.1133C93.6406 50.1496 93.6408 50.1492 93.6768 50.1855C93.7127 50.2218 93.7119 50.2225 93.7119 50.2588V50.4033C93.676 50.4396 93.6768 50.4403 93.6768 50.4766C93.6766 50.5113 93.6434 50.546 93.6406 50.5488C93.6406 50.5833 93.6078 50.6177 93.6045 50.6211C93.5685 50.6937 93.4604 50.7306 93.3525 50.6943H93.209C93.173 50.6943 93.1727 50.6582 93.1367 50.6582L93.1006 50.6211C93.1003 50.5862 93.0677 50.5512 93.0654 50.5488C93.0654 50.5308 93.065 50.5217 93.0605 50.5127L92.998 50.4404C92.9933 50.4312 92.9932 50.4218 92.9932 50.4033V50.2588C93.0291 50.2225 93.0293 50.2219 93.0293 50.1855C93.0295 50.1494 93.0654 50.1133 93.0654 50.1133L93.1006 50.0771C93.1006 50.0771 93.101 50.0412 93.1367 50.041C93.1727 50.0047 93.173 50.0039 93.209 50.0039H93.4961ZM29.0654 46.4844C30.7551 46.4845 31.6182 47.3919 31.6182 48.916V50.3311H26.5479V48.9883C26.5479 47.3915 27.3755 46.4844 29.0654 46.4844ZM93.0293 49.1338C93.2091 49.0975 93.3888 49.2423 93.4248 49.4238C93.4607 49.6053 93.3165 49.7869 93.1367 49.8232H93.0654C92.9216 49.8232 92.7772 49.7138 92.7412 49.5322C92.7056 49.3509 92.8497 49.1701 93.0293 49.1338ZM104.931 49.1338C105.11 49.1701 105.219 49.3509 105.219 49.5322C105.219 49.7138 105.074 49.8232 104.895 49.8232H104.823C104.643 49.7869 104.499 49.6053 104.535 49.4238C104.571 49.2423 104.751 49.0975 104.931 49.1338ZM29.0654 47.3916C27.807 47.3916 27.2676 48.0083 27.2676 49.0244V49.4238H30.8984V49.0244C30.8984 47.9721 30.3236 47.3917 29.0654 47.3916ZM93.1367 48.1904C93.3523 48.2267 93.4605 48.4075 93.4248 48.5889C93.4248 48.7702 93.2453 48.8797 93.1016 48.8799H93.0293C92.8496 48.8436 92.7053 48.662 92.7412 48.4805C92.7771 48.2628 92.957 48.1543 93.1367 48.1904ZM104.786 48.1904C104.966 48.1541 105.146 48.2626 105.182 48.4805C105.218 48.6619 105.074 48.8434 104.895 48.8799H104.822C104.678 48.8799 104.535 48.7704 104.499 48.5889C104.463 48.4076 104.607 48.2269 104.786 48.1904ZM104.355 47.3555C104.499 47.2466 104.714 47.2825 104.822 47.4639C104.894 47.6453 104.822 47.8266 104.679 47.9355C104.607 47.9718 104.571 47.9727 104.499 47.9727C104.391 47.9727 104.283 47.8999 104.211 47.791C104.139 47.6458 104.176 47.4281 104.355 47.3555ZM93.1016 47.4268C93.2095 47.2819 93.4247 47.2097 93.5684 47.3184C93.7481 47.4273 93.8198 47.6085 93.7119 47.79C93.64 47.8989 93.5326 47.9716 93.4248 47.9717C93.353 47.9717 93.2811 47.9717 93.2451 47.9355C93.0653 47.8266 93.0297 47.6083 93.1016 47.4268ZM93.8203 46.666C93.964 46.5212 94.1792 46.5572 94.2871 46.7021C94.4309 46.8474 94.3948 47.0659 94.251 47.1748C94.1792 47.211 94.1069 47.2471 94.0352 47.2471C93.9274 47.247 93.8201 47.2102 93.7842 47.1377C93.6404 46.9925 93.6765 46.7749 93.8203 46.666ZM103.672 46.7021C103.78 46.5569 103.996 46.5561 104.14 46.665C104.283 46.774 104.283 46.9925 104.175 47.1377C104.139 47.21 104.031 47.246 103.924 47.2461C103.852 47.2461 103.78 47.2463 103.708 47.1738C103.564 47.065 103.528 46.8111 103.672 46.7021ZM97.5596 46.3379C97.6673 46.3379 97.8108 46.3748 97.8828 46.4473C97.8828 46.4743 97.9029 46.4813 97.9131 46.498L97.9248 46.541C97.9349 46.5583 97.9551 46.5654 97.9551 46.5928C97.9909 46.6289 97.9912 46.6288 97.9912 46.665V46.7373C97.9912 46.8462 97.9547 46.9196 97.8828 46.9922C97.811 47.0645 97.7036 47.1005 97.6318 47.1006H97.4873C97.4518 47.1003 97.4516 47.0646 97.416 47.0645C97.3801 47.0281 97.3799 47.0277 97.3799 46.9551C97.3081 46.8825 97.2725 46.7737 97.2725 46.7012V46.6289C97.3081 46.5929 97.3076 46.5924 97.3076 46.5566C97.3076 46.5203 97.3438 46.4834 97.3438 46.4834C97.3439 46.448 97.3783 46.4128 97.3799 46.4111C97.3799 46.4111 97.3801 46.4112 97.416 46.375C97.4518 46.3388 97.4517 46.3379 97.4873 46.3379H97.5596ZM100.292 46.3379C100.4 46.3379 100.543 46.3748 100.615 46.4473C100.687 46.5198 100.724 46.6286 100.724 46.7012V46.7744C100.688 46.8106 100.688 46.8104 100.688 46.8467C100.687 46.8822 100.653 46.9175 100.651 46.9189L100.615 46.9551C100.543 47.0276 100.436 47.0643 100.364 47.0645H100.22C100.184 47.0642 100.184 47.0285 100.148 47.0283L100.112 46.9922C100.112 46.9922 100.092 46.9918 100.082 46.9766L100.07 46.9336C100.06 46.9169 100.04 46.9098 100.04 46.8828C100.004 46.8826 100.005 46.8459 100.005 46.7373V46.665C100.005 46.5562 100.04 46.4837 100.112 46.4111C100.112 46.4111 100.113 46.4112 100.148 46.375C100.184 46.3388 100.184 46.3379 100.22 46.3379H100.292ZM96.373 46.375C96.445 46.1937 96.625 46.0847 96.8047 46.1572C96.9845 46.2298 97.0924 46.4122 97.0205 46.5938C96.9844 46.7387 96.84 46.8115 96.6963 46.8115C96.6605 46.8112 96.6247 46.7744 96.5889 46.7744C96.4092 46.7018 96.3012 46.5202 96.373 46.375ZM94.7549 46.1211C94.9347 46.0485 95.1146 46.1573 95.1865 46.3389C95.2583 46.5203 95.1504 46.7018 94.9707 46.7744H94.8623C94.7186 46.7743 94.575 46.7017 94.5391 46.5566C94.4672 46.3751 94.5751 46.1937 94.7549 46.1211ZM101.119 46.084C101.299 46.0477 101.479 46.1204 101.551 46.3018C101.587 46.4832 101.515 46.6647 101.335 46.7373C101.299 46.7735 101.263 46.7744 101.228 46.7744C101.084 46.7744 100.975 46.7011 100.903 46.5195C100.868 46.3381 100.94 46.1565 101.119 46.084ZM102.773 46.3389C102.845 46.1574 103.024 46.0487 103.204 46.1211C103.384 46.1937 103.492 46.3751 103.42 46.5566C103.384 46.7018 103.24 46.7744 103.097 46.7744H102.988C102.809 46.7017 102.702 46.5203 102.773 46.3389ZM95.7617 45.9033C95.9414 45.9033 96.0847 46.0842 96.085 46.2656C96.085 46.4835 95.9415 46.6289 95.7617 46.6289C95.582 46.6288 95.4385 46.4471 95.4385 46.2656C95.4387 46.0481 95.5821 45.9034 95.7617 45.9033ZM102.162 45.9033C102.342 45.9036 102.485 46.0844 102.485 46.2656C102.485 46.4833 102.342 46.6287 102.162 46.6289C101.982 46.6289 101.802 46.4472 101.838 46.2656C101.838 46.048 101.982 45.9033 102.162 45.9033Z" fill="white"/>
</svg>
